<svg xmlns="http://www.w3.org/2000/svg" class="font" viewBox="0 0 300 300"><rect width="300" height="300" x="0" y="0" fill="#EBFBFA" class="logo-background-square"/><defs><linearGradient id="914e2c35-66fd-44e0-84ba-3a9b7f8fb298" x1="0%" x2="100%" y1="0%" y2="0%" gradientTransform="rotate(25)"><stop offset="0%" stop-color="#41E296" stop-opacity="1"/><stop offset="100%" stop-color="#00C4EE" stop-opacity="1"/></linearGradient></defs><g id="a68ee6b2-55f5-40fa-81d3-d01e095f906e" fill="url(#914e2c35-66fd-44e0-84ba-3a9b7f8fb298)" transform="matrix(3.5731687545776367,0,0,3.5731687545776367,40.32158520196396,123.48708916726342)"><path d="M7.51 2.10L-0.09 2.10L-0.09 4.15L2.57 4.15L2.57 12.60L4.87 12.60L4.87 4.15L7.51 4.15ZM11.03 12.74C13.37 12.74 14.91 11.20 14.91 9.10C14.91 7.00 13.37 5.46 11.03 5.46C8.68 5.46 7.12 7.00 7.12 9.10C7.12 11.20 8.68 12.74 11.03 12.74ZM11.03 10.76C10.06 10.75 9.36 10.05 9.36 9.10C9.36 8.16 10.06 7.46 11.03 7.44C11.97 7.46 12.69 8.16 12.69 9.10C12.69 10.05 11.97 10.75 11.03 10.76ZM19.64 12.74C21.75 12.74 22.93 11.64 22.93 9.92L22.93 5.60L20.70 5.60L20.70 9.63C20.70 10.29 20.25 10.76 19.64 10.76C19.04 10.76 18.59 10.29 18.59 9.63L18.59 5.60L16.35 5.60L16.35 9.92C16.35 11.64 17.52 12.74 19.64 12.74ZM29.05 5.46C28.23 5.46 27.55 5.88 27.09 6.56L27.09 5.60L24.85 5.60L24.85 12.60L27.09 12.60L27.09 9.26C27.09 8.10 27.88 7.44 28.98 7.44C29.24 7.44 29.47 7.47 29.63 7.51L29.63 5.53C29.47 5.48 29.26 5.46 29.05 5.46ZM37.03 4.13L37.03 2.10L30.71 2.10L30.71 12.60L37.03 12.60L37.03 10.57L33.02 10.57L33.02 8.37L36.45 8.37L36.45 6.34L33.02 6.34L33.02 4.13ZM46.59 10.78C46.29 10.78 45.97 10.68 45.97 10.10L45.97 5.60L43.75 5.60L43.75 6.21C43.23 5.74 42.56 5.46 41.76 5.46C39.81 5.46 38.29 7.07 38.29 9.10C38.29 11.13 39.81 12.74 41.76 12.74C42.77 12.74 43.59 12.29 44.15 11.55C44.59 12.27 45.36 12.74 46.31 12.74C46.53 12.74 46.74 12.67 46.90 12.60L46.90 10.78ZM42.19 10.76C41.27 10.76 40.53 10.03 40.53 9.10C40.53 8.17 41.27 7.44 42.19 7.44C43.10 7.44 43.86 8.17 43.86 9.10C43.86 10.03 43.10 10.76 42.19 10.76ZM50.45 12.74C52.03 12.74 52.99 11.78 52.99 10.47C52.99 9.07 51.84 8.51 50.84 8.12C50.33 7.91 50.09 7.81 50.09 7.54C50.09 7.32 50.26 7.14 50.65 7.14C51.10 7.14 51.52 7.39 51.73 7.65L52.85 6.39C52.33 5.86 51.47 5.46 50.49 5.46C48.90 5.46 47.88 6.51 47.88 7.70C47.88 9.10 49.28 9.57 50.09 9.87C50.72 10.12 50.93 10.29 50.93 10.54C50.93 10.82 50.68 10.97 50.31 10.97C49.95 10.97 49.45 10.83 49.14 10.24L47.50 11.06C47.91 12.15 49.21 12.74 50.45 12.74ZM61.48 9.08C61.48 6.90 59.97 5.44 57.72 5.44C55.46 5.44 53.87 6.91 53.87 9.10C53.87 11.29 55.44 12.74 57.79 12.74C59.73 12.74 61.02 11.71 61.37 10.19L59.22 10.19C59.03 10.75 58.52 11.08 57.75 11.08C56.74 11.08 56.21 10.47 56.12 9.47L61.48 9.47ZM57.75 7.16C58.50 7.16 58.94 7.51 59.17 8.12L56.26 8.12C56.49 7.53 56.96 7.16 57.75 7.16Z"/></g></svg>